# xmcd
#
# Track frame offsets: 
#        150
#        14633
#        28183
#        43787
#
# Disc length: 787 seconds
#
# Revision: 1
# Processed by: cddbd v1.5.2PL0 Copyright (c) Steve Scherf et al.
# Submitted via: ExactAudioCopy v0.99pb5
#
DISCID=30031104
DTITLE=Jenniffer Kae - Little White Lies
DYEAR=2008
DGENRE=R&B
TTITLE0=Little White Lies
TTITLE1=Little White Lies (Acoustic Mix)
TTITLE2=Little White Lies (Electro Remix)
TTITLE3=You
EXTD=
EXTT0=
EXTT1=
EXTT2=
EXTT3=
PLAYORDER=
